<svg width="2000" height="498" xmlns="http://www.w3.org/2000/svg">
 <defs>
  <clipPath id="a">
   <rect x="38.9852" y="-144.44487" id="svg_1" height="587.191" width="2012.03"/>
  </clipPath>
  <clipPath id="b">
   <rect x="38.9852" y="-144.44487" id="svg_2" height="587.191" width="2012.134"/>
  </clipPath>
  <clipPath id="d">
   <rect id="svg_3" height="498" width="2000"/>
  </clipPath>
 </defs>
 <g>
  <title>background</title>
  <rect fill="none" id="canvas_background" height="602" width="802" y="-1" x="-1"/>
 </g>
 <g>
  <title>Layer 1</title>
  <g stroke="null" clip-path="url(#d)" id="c">
   <g stroke="null" id="svg_4">
    <g stroke="null" id="svg_5" clip-path="url(#a)">
     <g stroke="null" id="svg_6" clip-path="url(#b)">
      <path stroke="#086687" id="svg_7" stroke-width="3" stroke-miterlimit="10" fill="none" d="m791.8149,105.98256a-37.95011,30.55031 0 1 1 11.91294,60.34338a-38.40815,30.91904 0 0 1 26.10186,-13.68462"/>
      <path stroke="#086687" id="svg_8" stroke-width="3" stroke-miterlimit="10" fill="none" d="m829.02619,119.02451a-37.31998,30.04305 0 0 1 -22.22016,-12.39512"/>
      <path stroke="#086687" id="svg_9" stroke-width="3" stroke-miterlimit="10" fill="none" d="m814.83727,90.03556a-71.4699,57.53417 0 0 1 -15.1257,-2.0478"/>
      <path stroke="#086687" id="svg_10" stroke-width="3" stroke-miterlimit="10" fill="none" d="m851.51418,114.92683a-59.37581,47.79827 0 0 1 -22.62127,-19.9353"/>
      <path stroke="#086687" id="svg_11" stroke-width="3" stroke-miterlimit="10" fill="none" d="m741.08364,120.52963a-59.9076,48.22637 0 0 1 24.6294,56.35611"/>
      <path stroke="#086687" id="svg_12" stroke-width="3" stroke-miterlimit="10" fill="none" d="m792.75168,197.6835a-60.10428,48.3847 0 0 0 -9.5037,-1.07806a-76.59892,61.6631 0 0 0 -46.98412,-24.35276"/>
      <path stroke="#086687" id="svg_13" stroke-width="3" stroke-miterlimit="10" fill="none" d="m855.66372,158.89095a-79.25271,63.79943 0 0 0 -12.18078,12.28366"/>
      <path stroke="#086687" id="svg_14" stroke-width="3" stroke-miterlimit="10" fill="none" d="m864.23064,166.86445a-79.12203,63.69423 0 0 0 -21.01554,19.07285"/>
      <path stroke="#086687" id="svg_15" stroke-width="3" stroke-miterlimit="10" fill="none" d="m774.94761,78.07376a-79.16343,63.72756 0 0 0 28.64567,-2.80192a-76.28709,61.41207 0 0 0 58.62923,27.80152"/>
      <path stroke="#086687" id="svg_16" stroke-width="3" stroke-miterlimit="10" fill="none" d="m728.37236,161.26061a-76.40484,61.50686 0 0 0 23.4196,-73.59678"/>
      <path stroke="null" id="svg_17" fill="#fc7500" d="m822.19957,136.15373a-21.41664,17.24067 0 1 0 -21.41664,-17.24067a-21.47875,17.29067 0 0 0 21.41664,17.24067z"/>
      <path stroke="null" id="svg_18" fill="#fff" d="m848.3079,100.16414c27.57432,-8.29744 56.75566,-17.13338 96.37619,-27.69319c41.36212,-11.09936 44.84142,-13.90024 93.03146,-27.80152c5.08632,-1.50825 20.88097,-7.21937 27.57432,-8.29744c34.40094,-5.49552 153.66623,-19.39575 220.3267,-24.89439c29.31461,-2.47798 21.55121,0.3229 37.88153,0c25.16119,-0.53539 129.56604,3.88207 156.33685,5.49864c8.70019,0.53851 39.35399,3.34043 46.84956,0c0,0 -3.75231,-8.40472 0,-13.90024c23.96045,-1.61657 48.72312,-3.66333 72.28247,0c1.33919,3.02066 0,16.59487 0,16.59487c20.61443,-8.29744 72.28247,-24.89439 106.68341,-35.99062c12.71646,-3.98727 261.15315,-2.58631 258.20823,0.10416c-2.94492,2.58631 4.55065,196.75944 0,196.75944l-261.68883,0c2.40924,-0.21561 -47.11739,-13.57734 -44.70815,-13.90024c-20.61443,-8.29744 -34.40094,-13.90024 -57.69244,-18.2104c-6.29095,7.86621 2.67708,18.2104 -0.80351,18.2104c-11.64511,0 -61.17174,2.58631 -72.28247,0c0.53567,-1.72386 -1.20462,-7.43499 -1.07135,-9.91401c-11.91294,13.25444 -19.67635,15.08559 -35.33772,26.50784c-15.25897,11.09936 -8.03124,14.00856 -35.8734,24.99855c-24.76397,9.80568 -99.85679,27.69319 -120.46992,30.49511c-14.18892,1.93947 -50.9991,-2.80192 -65.45585,-2.80192c-3.48059,0 3.75231,23.81425 1.7403,38.89983c-0.93678,7.21937 -3.75231,15.6241 -12.31535,17.88751c-4.01109,1.07806 -19.94419,2.69359 -23.82589,1.40096c-18.47173,-6.24964 -17.2671,-17.13338 -17.2671,-33.29703c0,-35.99062 -3.48059,-105.27724 0,-127.47491c1.33789,-8.72866 14.32219,-16.27093 17.2671,-27.69319c-6.82662,2.80192 -22.35343,7.54331 -26.50297,15.6241c-14.45675,28.66292 -34.80593,58.1883 -49.2588,86.85122c-8.83475,17.45628 -27.57432,44.39535 -48.18874,38.79255c-6.29095,-1.72386 -16.866,-11.31393 -17.2671,-16.59487c-0.80351,-14.65436 10.30721,-22.52057 17.2671,-35.99062c9.90481,-19.28847 45.24383,-80.49326 55.14864,-99.78589c7.89279,-15.51993 20.61443,-11.09936 34.40094,-22.19767c7.36229,-5.92674 -30.65251,-0.3229 -24.09372,-2.80192c-47.78634,5.17262 -58.49466,8.29744 -106.68341,13.90024c-25.83402,3.02066 -96.37619,27.69319 -96.37619,27.69319s-103.33738,35.99062 -120.46992,30.49511c-10.30721,-2.80192 -20.61443,-16.59487 -20.61443,-22.19767c-0.26654,-7.53081 8.03254,-16.57925 16.87247,-19.27597zm502.75805,91.48429l27.57432,-8.29744l3.48059,-58.1883l-30.92423,-22.19767l-20.61443,24.89439l20.48374,63.78902zm-82.72295,-2.80192l27.57432,2.80192l-20.61443,-52.69278l-6.82662,11.09936l-0.13327,38.7915z"/>
      <path stroke="null" id="svg_19" opacity="0.5" fill="#ff935f" d="m1295.91731,66.86711l55.14864,36.09791s-20.61443,16.59487 -20.61443,24.89439s19.94419,61.0975 19.94419,61.0975s-2.67708,5.38823 -12.98429,5.38823s-41.36212,-2.80192 -41.36212,-2.80192l-20.61443,-52.69278l-10.30721,13.90024l3.48059,35.99062s-44.70815,0 -44.70815,16.59487s17.2671,30.49511 44.70815,30.49511c0,0 4.81849,34.58966 -1.07135,43.64331s-14.45675,16.16365 -22.22016,16.80944s-28.37783,-10.45252 -28.37783,-21.55084c0,-6.89648 -3.07819,-129.09149 -3.07819,-129.09149l20.34659,-39.97789l-25.43291,12.82322s-57.15677,111.9581 -67.59725,120.25554s-20.61443,11.09832 -30.92423,8.29744s-18.20389,-10.88374 -17.80278,-19.28847s69.74125,-132.00069 69.74125,-132.00069l37.34974,-26.08182l96.37619,-2.80192z"/>
      <path stroke="null" id="svg_20" fill="#ffd5b8" d="m1078.6688,48.54942l204.93317,-19.61241l183.91893,22.41329l55.54974,106.24385l3.48059,-139.64817l69.47082,22.19767l104.1396,-27.90568l263.9648,-28.01921l-263.9648,0l-92.76362,25.75372l-11.10943,-5.49552l-68.2662,0l-1.47246,13.46901l-237.99492,-8.18911l-234.24778,27.69319l-15.92921,4.74139l-160.09304,57.75707l27.3013,4.74139s123.68914,-44.28806 127.83739,-47.73578c2.40924,-1.93947 8.96803,-15.94804 20.88097,-19.61136c5.62329,-1.7249 24.36415,11.20664 24.36415,11.20664z"/>
      <path stroke="null" id="svg_21" fill="#ffd5b8" d="m1267.53819,51.3503l-184.72114,21.22794l-9.63827,9.05156l203.99768,-25.5381l-9.63827,-4.74139z"/>
      <path stroke="#fc7500" id="svg_22" stroke-width="3" stroke-miterlimit="10" fill="none" d="m1593.47824,3.07601l-61.43958,0a-5.43438,4.37475 0 0 1 -5.48873,4.41849l0,154.73896a-5.43438,4.37475 0 0 1 5.48873,4.41849l61.43958,0a-5.43438,4.37475 0 0 1 5.48873,-4.41849l0,-154.73896a-5.51202,4.43724 0 0 1 -5.48873,-4.41849z"/>
      <path stroke="#fc7500" id="svg_23" stroke-width="3" stroke-miterlimit="10" fill="none" d="m1927.44954,7.17057l-175.08417,0c-7.7634,0 -14.05435,3.77166 -14.05435,8.29744l0,26.29223c0,4.63307 6.29095,8.29744 14.05435,8.29744l175.08417,0"/>
      <path stroke="#fc7500" id="svg_24" stroke-width="3" stroke-miterlimit="10" fill="none" d="m1748.35039,137.4474a-14.05306,11.31289 0 0 1 14.05435,-11.31914l0,-35.66252a-14.05306,11.31289 0 0 1 -14.05435,-11.31393"/>
      <path stroke="#fc7500" id="svg_25" stroke-width="3" stroke-miterlimit="10" fill="none" d="m1786.49976,126.24076l0,-35.66669"/>
      <path stroke="#fc7500" id="svg_26" stroke-width="3" stroke-miterlimit="10" fill="none" d="m1776.19255,126.24076l0,-35.66669"/>
      <path stroke="#fc7500" id="svg_27" stroke-width="3" stroke-miterlimit="10" fill="none" d="m1817.55338,126.24076l0,-35.66669"/>
      <path stroke="#fc7500" id="svg_28" stroke-width="3" stroke-miterlimit="10" fill="none" d="m1807.24746,126.24076l0,-35.66669"/>
      <path stroke="#fc7500" id="svg_29" stroke-width="3" stroke-miterlimit="10" fill="none" d="m1598.29802,19.02405l105.61206,-36.74475l296.08977,0"/>
      <path stroke="#fc7500" id="svg_30" stroke-width="3" stroke-miterlimit="10" fill="none" d="m1598.29802,145.85212l103.87176,35.99062l296.08977,0"/>
      <path stroke="#fc7500" id="svg_31" stroke-width="3" stroke-miterlimit="10" fill="none" d="m1703.91008,-16.31974l0,198.16353"/>
      <path stroke="#fc7500" id="svg_32" stroke-width="3" stroke-miterlimit="10" fill="none" d="m1528.29153,18.26993l-240.94113,-8.29744"/>
      <path stroke="#fc7500" id="svg_33" stroke-width="3" stroke-miterlimit="10" fill="none" d="m1289.09069,9.97249c-14.32219,0 -25.83402,9.91401 -25.83402,22.19767s11.51572,22.19767 25.83402,22.19767"/>
      <path stroke="#fc7500" id="svg_34" stroke-width="3" stroke-miterlimit="10" fill="none" d="m1065.2834,82.06102c-14.32219,0 -25.83402,-9.91401 -25.83402,-22.19767s11.51054,-22.19767 25.83402,-22.19767s25.83402,9.91401 25.83402,22.19767s-11.51572,22.19767 -25.83402,22.19767z"/>
      <path stroke="#fc7500" id="svg_35" stroke-width="3" stroke-miterlimit="10" fill="none" d="m1162.99748,95.20714c-5.75527,10.23691 0.40111,22.52057 13.78781,27.5859c13.51997,5.06429 29.31461,0.96974 35.33772,-9.2703"/>
      <path stroke="#fc7500" id="svg_36" stroke-width="3" stroke-miterlimit="10" fill="none" d="m1292.43672,53.82933a-27.56008,22.18622 0 1 1 -11.37727,-43.42561"/>
      <path stroke="#fc7500" id="svg_37" stroke-width="3" stroke-miterlimit="10" fill="none" d="m1225.37514,67.40667l-31.05362,12.71489"/>
      <path stroke="#fc7500" id="svg_38" stroke-width="3" stroke-miterlimit="10" fill="none" d="m1208.10674,87.55654l45.24383,-20.36549"/>
      <path stroke="#fc7500" id="svg_39" stroke-width="3" stroke-miterlimit="10" fill="none" d="m1443.56562,164.92498a-28.37265,22.84034 0 0 1 -19.67635,15.3012c-4.81849,11.85348 2.54381,24.35276 16.33032,28.01921a-25.31387,20.37799 0 0 1 19.0074,-1.18535"/>
      <path stroke="#fc7500" id="svg_40" stroke-width="3" stroke-miterlimit="10" fill="none" d="m1268.34947,275.69877c1.7403,-12.28366 -8.43235,-23.27574 -22.62127,-24.56837s-27.3013,7.54331 -29.04678,19.82698"/>
      <path stroke="#fc7500" id="svg_41" stroke-width="3" stroke-miterlimit="10" fill="none" d="m1459.22052,206.84234a-25.81461,20.78109 0 0 1 16.33032,-26.29223l-0.80351,-2.0478a-25.81461,20.78109 0 0 1 -32.66323,-13.14611"/>
      <path stroke="#fc7500" id="svg_42" stroke-width="3" stroke-miterlimit="10" fill="none" d="m1366.45819,226.13081c0.40111,0 68.6686,-16.48655 68.6686,-16.48655"/>
      <path stroke="#fc7500" id="svg_43" stroke-width="3" stroke-miterlimit="10" fill="none" d="m1325.76631,196.60544a-25.82238,20.78734 0 0 1 -15.79465,26.18494l0.80351,2.0478a-25.89613,20.84671 0 0 1 31.72386,13.36068"/>
      <path stroke="#fc7500" id="svg_44" stroke-width="3" stroke-miterlimit="10" fill="none" d="m1424.81958,170.96004s-68.53404,24.78398 -68.6686,24.78398"/>
      <path stroke="#fc7500" id="svg_45" stroke-width="3" stroke-miterlimit="10" fill="none" d="m1417.99296,184.75195s-54.74753,16.37926 -54.8808,16.48655"/>
      <path stroke="#fc7500" id="svg_46" stroke-width="3" stroke-miterlimit="10" fill="none" d="m1421.34028,198.65323s-54.74753,13.68462 -54.8808,13.68462"/>
      <path stroke="#fc7500" id="svg_47" stroke-width="3" stroke-miterlimit="10" fill="none" d="m1334.19866,238.7405a-25.91683,20.86338 0 0 1 27.97543,-18.96557l0.26784,-2.15508a-25.91683,20.86338 0 0 1 -23.55805,-22.52265"/>
      <path stroke="#fc7500" id="svg_48" stroke-width="3" stroke-miterlimit="10" fill="none" d="m1266.6027,226.13081l48.32202,8.40472"/>
      <path stroke="#fc7500" id="svg_49" stroke-width="3" stroke-miterlimit="10" fill="none" d="m1254.28735,189.38606l-1.47246,-0.10416a-25.91683,20.86338 0 0 1 -27.97543,18.96453l-0.26784,2.15508a-25.91683,20.86338 0 0 1 23.55805,22.51745"/>
      <path stroke="#fc7500" id="svg_50" stroke-width="3" stroke-miterlimit="10" fill="none" d="m1311.44412,201.23954l-37.88153,-2.80192"/>
      <path stroke="#fc7500" id="svg_51" stroke-width="3" stroke-miterlimit="10" fill="none" d="m1211.58734,113.9571a-25.82885,20.79255 0 0 1 -12.98429,-27.47758l-1.7403,-0.64684a-25.82885,20.79255 0 0 1 -34.1331,10.45252"/>
      <path stroke="#fc7500" id="svg_52" stroke-width="3" stroke-miterlimit="10" fill="none" d="m1092.99099,221.82064a-25.6684,20.66339 0 0 1 14.32219,24.56837l1.7403,0.64684a-25.82885,20.79255 0 0 1 34.1331,-10.45252"/>
      <path stroke="#fc7500" id="svg_53" stroke-width="3" stroke-miterlimit="10" fill="none" d="m834.78275,113.74148a-25.6684,20.66339 0 0 1 14.32219,24.56837l1.7403,0.64684a-25.82885,20.79255 0 0 1 34.1331,-10.45252"/>
      <path stroke="#fc7500" id="svg_54" stroke-width="3" stroke-miterlimit="10" fill="none" d="m1162.72965,96.39249l-50.9991,107.64793"/>
      <path stroke="#fc7500" id="svg_55" stroke-width="3" stroke-miterlimit="10" fill="none" d="m1266.6027,131.95189l48.32202,-52.69278"/>
      <path stroke="#fc7500" id="svg_56" stroke-width="3" stroke-miterlimit="10" fill="none" d="m1216.27255,134.75381a-25.82367,20.78838 0 0 1 11.91294,25.32249l1.33789,0.53851a-25.83014,20.79359 0 0 1 35.06471,-8.29744"/>
      <path stroke="#fc7500" id="svg_57" stroke-width="3" stroke-miterlimit="10" fill="none" d="m1218.01285,131.95189a-17.49354,14.08252 0 0 1 -1.60573,2.90921"/>
      <path stroke="#fc7500" id="svg_58" stroke-width="3" stroke-miterlimit="10" fill="none" d="m1259.77608,68.16079l-27.57432,47.19727"/>
      <path stroke="#fc7500" id="svg_59" stroke-width="3" stroke-miterlimit="10" fill="none" d="m1216.9415,274.728a-25.76933,20.74463 0 0 1 51.53477,-0.53851"/>
      <path stroke="#fc7500" id="svg_60" stroke-width="3" stroke-miterlimit="10" fill="none" d="m1226.57976,222.25083l2.14141,26.07662"/>
      <path stroke="#fc7500" id="svg_61" stroke-width="3" stroke-miterlimit="10" fill="none" d="m1221.89455,165.24892l3.07819,37.06765"/>
      <path stroke="#fc7500" id="svg_62" stroke-width="3" stroke-miterlimit="10" fill="none" d="m1241.83873,230.8722l0.66895,14.76269"/>
      <path stroke="#fc7500" id="svg_63" stroke-width="3" stroke-miterlimit="10" fill="none" d="m1239.16165,167.94251l0.93678,23.16741"/>
      <path stroke="#fc7500" id="svg_64" stroke-width="3" stroke-miterlimit="10" fill="none" d="m1266.46813,139.8181a-25.76933,20.74463 0 1 1 -51.53477,0.53851"/>
      <path stroke="#fc7500" id="svg_65" stroke-width="3" stroke-miterlimit="10" fill="none" d="m1260.97941,189.92457l2.27597,-27.47758"/>
      <path stroke="#fc7500" id="svg_66" stroke-width="3" stroke-miterlimit="10" fill="none" d="m1256.29549,245.63385l1.07135,-12.49928"/>
      <path stroke="#fc7500" id="svg_67" stroke-width="3" stroke-miterlimit="10" fill="none" d="m1524.94421,156.84315l-58.62923,47.19727"/>
      <path stroke="#fc7500" id="svg_68" stroke-width="3" stroke-miterlimit="10" fill="none" d="m1277.17646,134.31842a-29.64844,23.86737 0 0 1 5.35416,4.41849l2.14141,1.29263a-25.84437,20.80505 0 0 1 36.14123,-4.20288l30.6538,-32.8606"/>
      <path stroke="#fc7500" id="svg_69" stroke-width="3" stroke-miterlimit="10" fill="none" d="m1349.72676,190.46412l-24.36156,-74.24362a-25.94659,20.88733 0 0 1 -25.0318,-15.40952"/>
      <path stroke="#fc7500" id="svg_70" stroke-width="3" stroke-miterlimit="10" fill="none" d="m1275.83856,137.01618l18.60629,56.24674"/>
      <path stroke="#fc7500" id="svg_71" stroke-width="3" stroke-miterlimit="10" fill="none" d="m1686.64298,4.47697l0,155.1681"/>
      <path stroke="#fc7500" id="svg_72" stroke-width="3" stroke-miterlimit="10" fill="none" d="m1652.24204,95.85398l0,49.89295"/>
      <path stroke="#fc7500" id="svg_73" stroke-width="3" stroke-miterlimit="10" fill="none" d="m1652.24204,54.15222l0,29.41705"/>
      <path stroke="#fc7500" id="svg_74" stroke-width="3" stroke-miterlimit="10" fill="none" d="m1652.24204,17.62309l0,31.03362"/>
      <path stroke="#fc7500" id="svg_75" stroke-width="3" stroke-miterlimit="10" fill="none" d="m1669.50914,47.36408l0,105.38557"/>
      <path stroke="#fc7500" id="svg_76" stroke-width="3" stroke-miterlimit="10" fill="none" d="m1635.1082,104.5816l0,-73.81239"/>
      <path stroke="#fc7500" id="svg_77" stroke-width="3" stroke-miterlimit="10" fill="none" d="m1635.1082,136.15477l0,-20.47381"/>
      <path stroke="#fc7500" id="svg_78" stroke-width="3" stroke-miterlimit="10" fill="none" d="m1617.8411,55.23029l0,-13.36173"/>
      <path stroke="#fc7500" id="svg_79" stroke-width="3" stroke-miterlimit="10" fill="none" d="m1617.8411,93.48328l0,-32.97309"/>
      <path stroke="#fc7500" id="svg_80" stroke-width="3" stroke-miterlimit="10" fill="none" d="m1617.8411,125.05541l0,-20.47381"/>
      <path stroke="#fc7500" id="svg_81" stroke-width="3" stroke-miterlimit="10" fill="none" d="m1669.50914,13.95976l0,19.50408"/>
      <path stroke="#fc7500" id="svg_82" stroke-width="3" stroke-miterlimit="10" fill="none" d="m1292.43543,43.26848a-12.04751,9.6984 0 1 0 12.04751,-9.6984a-11.99705,9.65777 0 0 0 -12.04751,9.6984z"/>
      <path stroke="#fc7500" id="svg_83" stroke-width="3" stroke-miterlimit="10" fill="none" d="m1492.149,51.56592a-12.04751,9.6984 0 1 0 12.04751,-9.6984a-11.99705,9.65777 0 0 0 -12.04751,9.6984z"/>
      <path stroke="#fc7500" id="svg_84" stroke-width="3" stroke-miterlimit="10" fill="none" d="m1492.149,46.0704a-5.22089,4.20288 0 1 0 5.22089,-4.20184a-5.14326,4.14039 0 0 0 -5.22089,4.20184z"/>
      <path stroke="#fc7500" id="svg_85" stroke-width="3" stroke-miterlimit="10" fill="none" d="m1564.43147,21.17913a-5.22089,4.20288 0 1 0 5.22089,-4.20184a-5.14326,4.14039 0 0 0 -5.22089,4.20184z"/>
      <path stroke="#fc7500" id="svg_86" stroke-width="3" stroke-miterlimit="10" fill="none" d="m1929.45767,41.86752a-5.22089,4.20288 0 1 0 5.22089,-4.20184a-5.22736,4.20809 0 0 0 -5.22089,4.20184z"/>
      <path stroke="#fc7500" id="svg_87" stroke-width="3" stroke-miterlimit="10" fill="none" d="m1929.45767,22.47177a-5.22089,4.20288 0 1 0 5.22089,-4.20184a-5.22736,4.20809 0 0 0 -5.22089,4.20184z"/>
      <path stroke="#fc7500" id="svg_88" stroke-width="3" stroke-miterlimit="10" fill="none" d="m1564.43147,156.95148a-5.22089,4.20288 0 1 0 5.22089,-4.20184a-5.14326,4.14039 0 0 0 -5.22089,4.20184z"/>
      <path stroke="#fc7500" id="svg_89" stroke-width="3" stroke-miterlimit="10" fill="none" d="m1492.149,101.45678a-5.22089,4.20288 0 1 0 5.22089,-4.20184a-5.14326,4.14039 0 0 0 -5.22089,4.20184z"/>
      <path stroke="#fc7500" id="svg_90" stroke-width="3" stroke-miterlimit="10" fill="none" d="m1492.149,73.76359a-5.22089,4.20288 0 1 0 5.22089,-4.20184a-5.14326,4.14039 0 0 0 -5.22089,4.20184z"/>
      <path stroke="#fc7500" id="svg_91" stroke-width="3" stroke-miterlimit="10" fill="none" d="m1492.149,129.25829a-5.22089,4.20288 0 1 0 5.22089,-4.20184a-5.14326,4.14039 0 0 0 -5.22089,4.20184z"/>
      <path stroke="#fc7500" id="svg_92" stroke-width="3" stroke-miterlimit="10" fill="none" d="m1492.149,79.2591a-12.04751,9.6984 0 1 0 12.04751,-9.6984a-11.99705,9.65777 0 0 0 -12.04751,9.6984z"/>
      <path stroke="#fc7500" id="svg_93" stroke-width="3" stroke-miterlimit="10" fill="none" d="m1492.149,106.95229a-12.04751,9.6984 0 1 0 12.04751,-9.6984a-11.99705,9.65777 0 0 0 -12.04751,9.6984z"/>
      <path stroke="#fc7500" id="svg_94" stroke-width="3" stroke-miterlimit="10" fill="none" d="m1492.149,134.75277a-12.04751,9.6984 0 1 0 12.04751,-9.6984a-11.99705,9.65777 0 0 0 -12.04751,9.6984z"/>
      <path stroke="#fc7500" id="svg_95" stroke-width="3" stroke-miterlimit="10" fill="none" d="m1447.44085,198.43658a-12.04751,9.6984 0 1 0 12.04751,-9.6984a-11.99705,9.65777 0 0 0 -12.04751,9.6984z"/>
      <path stroke="#fc7500" id="svg_96" stroke-width="3" stroke-miterlimit="10" fill="none" d="m1337.27814,226.12977a-12.04751,9.6984 0 1 0 12.04751,-9.6984a-11.99705,9.65777 0 0 0 -12.04751,9.6984z"/>
      <path stroke="#fc7500" id="svg_97" stroke-width="3" stroke-miterlimit="10" fill="none" d="m1251.20787,217.83337a-12.04751,9.6984 0 1 0 12.04751,-9.6984a-11.99705,9.65777 0 0 0 -12.04751,9.6984z"/>
      <path stroke="#fc7500" id="svg_98" stroke-width="3" stroke-miterlimit="10" fill="none" d="m1244.24798,151.34764a-12.04751,9.6984 0 1 0 12.04751,-9.6984a-11.99705,9.65777 0 0 0 -12.04751,9.6984z"/>
      <path stroke="#fc7500" id="svg_99" stroke-width="3" stroke-miterlimit="10" fill="none" d="m1189.23261,112.55509a-12.04751,9.6984 0 1 0 12.04751,-9.6984a-11.99705,9.65777 0 0 0 -12.04751,9.6984z"/>
      <path stroke="#fc7500" id="svg_100" stroke-width="3" stroke-miterlimit="10" fill="none" d="m1244.24798,284.42639a-12.04751,9.6984 0 1 0 12.04751,-9.6984a-11.99705,9.65777 0 0 0 -12.04751,9.6984z"/>
      <path stroke="#fc7500" id="svg_101" stroke-width="3" stroke-miterlimit="10" fill="none" d="m1065.2821,70.96167a-12.04751,9.6984 0 1 0 12.04751,-9.6984a-11.99705,9.65777 0 0 0 -12.04751,9.6984z"/>
      <path stroke="#fc7500" id="svg_102" stroke-width="3" stroke-miterlimit="10" fill="none" d="m1120.29747,237.22913a-12.04751,9.6984 0 1 0 12.04751,-9.6984a-11.99705,9.65777 0 0 0 -12.04751,9.6984z"/>
      <path stroke="#fc7500" id="svg_103" stroke-width="3" stroke-miterlimit="10" fill="none" d="m1299.39661,131.95189a-12.04751,9.6984 0 1 0 12.04751,-9.6984a-11.99705,9.65777 0 0 0 -12.04751,9.6984z"/>
      <path stroke="#fc7500" id="svg_104" stroke-width="3" stroke-miterlimit="10" fill="none" d="m865.56853,126.34805a-12.04751,9.6984 0 1 0 12.04751,-9.69736a-11.99705,9.65777 0 0 0 -12.04751,9.69736z"/>
      <path stroke="#fc7500" id="svg_105" stroke-width="3" stroke-miterlimit="10" fill="none" d="m1263.25538,21.07081l-175.61985,22.19767"/>
      <path stroke="#fc7500" id="svg_106" stroke-width="3" stroke-miterlimit="10" fill="none" d="m1270.082,48.76399l-175.61985,16.70216"/>
      <path stroke="#fc7500" id="svg_107" stroke-width="3" stroke-miterlimit="10" fill="none" d="m1259.77608,34.97208l-165.31263,19.39575"/>
      <path stroke="#fc7500" id="svg_108" stroke-width="3" stroke-miterlimit="10" fill="none" d="m1091.11612,73.76359l196.2278,-13.90024l92.90207,63.7911"/>
      <path stroke="#fc7500" id="svg_109" stroke-width="3" stroke-miterlimit="10" fill="none" d="m1056.58192,82.06102l-172.13925,47.08894"/>
      <path stroke="#fc7500" id="svg_110" stroke-width="3" stroke-miterlimit="10" fill="none" d="m1039.44808,48.76399l-158.35145,52.69278"/>
      <path stroke="#fc7500" id="svg_111" stroke-width="3" stroke-miterlimit="10" fill="none" d="m1035.96878,62.66527l-151.52483,47.08894"/>
      <path stroke="#fc7500" id="svg_112" stroke-width="3" stroke-miterlimit="10" fill="none" d="m1042.92867,73.76359l-155.0093,44.28806"/>
      <path stroke="#fc7500" id="svg_113" stroke-width="3" stroke-miterlimit="10" fill="none" d="m1166.87919,123.65445l-41.36212,80.38597"/>
      <path stroke="#fc7500" id="svg_114" stroke-width="3" stroke-miterlimit="10" fill="none" d="m1197.80082,126.45637l-55.14864,88.68341"/>
      <path stroke="#fc7500" id="svg_115" stroke-width="3" stroke-miterlimit="10" fill="none" d="m1180.53242,129.14997l-44.70815,77.58405"/>
      <path stroke="#fc7500" id="svg_116" stroke-width="3" stroke-miterlimit="10" fill="none" d="m1280.38921,68.16079l-27.44105,44.39535"/>
      <path stroke="#fc7500" id="svg_117" stroke-width="3" stroke-miterlimit="10" fill="none" d="m1294.17702,76.56551l-30.92423,41.48614"/>
      <path stroke="#fc7500" id="svg_118" stroke-width="3" stroke-miterlimit="10" fill="none" d="m1304.48294,209.53594l-34.40094,-2.80192"/>
      <path stroke="#fc7500" id="svg_119" stroke-width="3" stroke-miterlimit="10" fill="none" d="m1311.44412,223.43722l-41.36212,-5.6028"/>
      <path stroke="#fc7500" id="svg_120" stroke-width="3" stroke-miterlimit="10" fill="none" d="m1480.10278,40.4676l-86.06898,0"/>
      <path stroke="#fc7500" id="svg_121" stroke-width="3" stroke-miterlimit="10" fill="none" d="m1478.36249,68.16079l-68.80188,0"/>
      <path stroke="#fc7500" id="svg_122" stroke-width="3" stroke-miterlimit="10" fill="none" d="m1912.19057,34.97208l-144.56494,0"/>
      <path stroke="#fc7500" id="svg_123" stroke-width="3" stroke-miterlimit="10" fill="none" d="m1905.36395,21.07081l-144.69821,0"/>
      <path stroke="#fc7500" id="svg_124" stroke-width="3" stroke-miterlimit="10" fill="none" d="m1480.10278,98.6559l-110.164,0"/>
      <path stroke="#fc7500" id="svg_125" stroke-width="3" stroke-miterlimit="10" fill="none" d="m1478.36249,126.45637l-34.40094,0"/>
      <path stroke="#fc7500" id="svg_126" stroke-width="3" stroke-miterlimit="10" fill="none" d="m1703.91008,162.447l161.83204,0l0,19.39575"/>
      <path stroke="#fc7500" id="svg_127" stroke-width="3" stroke-miterlimit="10" fill="none" d="m1855.43491,167.94251l-10.30721,8.29744l-13.78781,-8.29744l-13.78781,8.29744l-10.30721,-8.29744l-13.78781,8.29744l-10.30721,-8.29744l-13.78781,8.29744l-10.30721,-8.29744l-10.30721,8.29744l-10.30721,-8.29744l-13.78781,8.29744l-10.30721,-8.29744"/>
      <path stroke="#fc7500" id="svg_128" stroke-width="3" stroke-miterlimit="10" fill="none" d="m1562.69247,26.67465l5.88984,4.74139a-7.32736,5.89862 0 0 0 0.66895,7.6506l-3.21276,3.44772a-7.03623,5.66426 0 0 1 0,7.00376l3.21276,3.44772a-7.31701,5.89028 0 0 0 -0.66895,7.6506l-1.33919,1.07806a-7.32736,5.89862 0 0 1 -0.66895,7.6506l2.67708,2.90921a-7.31701,5.89028 0 0 0 -0.66895,7.6506l-1.33919,1.07806a-7.32736,5.89862 0 0 1 -0.66895,7.6506l2.67708,2.90921a-7.31701,5.89028 0 0 0 -0.66895,7.6506l-0.66895,0.53851a-7.35324,5.91945 0 0 1 0,8.29744a-7.35324,5.91945 0 0 0 0,8.29744l-0.66895,0.53851a-7.32736,5.89862 0 0 1 -0.66895,7.6506l2.67708,2.90921a-7.31701,5.89028 0 0 0 -0.66895,7.6506l-5.88984,4.74139"/>
      <path stroke="#fc7500" id="svg_129" stroke-width="3" stroke-miterlimit="10" fill="none" d="m1590.26678,4.47697l24.09372,8.29744"/>
      <path stroke="#fc7500" id="svg_130" stroke-width="3" stroke-miterlimit="10" fill="none" d="m1593.74608,165.24788l20.61443,-13.90024"/>
      <path stroke="#fc7500" id="svg_131" stroke-width="3" stroke-miterlimit="10" fill="none" d="m1703.91008,181.84171l-96.37619,-24.99855"/>
      <path stroke="#fc7500" id="svg_132" stroke-width="3" stroke-miterlimit="10" fill="none" d="m1607.53389,9.97249l96.37619,-27.69319"/>
      <path stroke="null" id="svg_133" fill="#4fc4f7" d="m647.5178,174.19215c-0.66895,0 -1.33919,-0.10416 -1.87357,-0.10416a-18.01757,14.50437 0 0 1 -6.55878,0.10416c-3.75231,0.75412 -6.42551,3.34043 -9.10259,5.71113c-20.47986,18.10312 -49.39337,22.84451 -78.70669,20.79671c-7.09446,-0.53851 -14.18892,-1.40096 -21.14881,-2.3707c-11.51572,-1.72386 -11.244,-2.26237 -18.60629,4.41849c-9.63697,8.72866 -17.53494,18.31873 -26.77081,27.37029a-113.01317,90.97703 0 0 0 -82.58968,32.65019c-4.68521,0.10416 -9.77154,0.10416 -13.25213,2.47798c-6.69205,4.52578 -3.07819,12.82322 -1.7403,18.53434c0.66895,2.80192 2.14141,16.91777 -4.95305,16.70216a-61.78246,49.73566 0 0 0 17.66951,2.80192a-114.81816,92.43007 0 0 1 22.08559,4.09455c5.88984,0.64684 12.18078,-0.21561 17.80278,1.18535c-6.42551,-1.61657 -17.40167,-4.957 -21.81905,-9.2703c-4.68521,-4.41849 0.40111,-10.45252 1.60573,-15.3012c0.40111,-1.72386 1.60573,-20.04259 -1.33789,-19.82698c10.97616,-0.64684 21.28337,-3.55604 31.32275,-7.00376c3.8817,-1.29263 8.43364,-2.15508 12.04751,-3.77166c4.28281,-1.93947 7.63401,-5.38823 11.7745,-7.54331c2.81035,-1.50825 5.88984,-2.90921 8.70019,-4.31017c11.244,-5.71113 19.67635,-13.25444 29.04678,-20.68943c1.33919,-1.07806 14.32219,-11.52954 12.58189,-12.17638c10.30721,3.98727 24.09372,1.40096 35.20445,2.0478c16.46489,0.86245 31.05362,0.86245 46.70982,-4.20288c14.18892,-4.63307 27.04252,-11.74515 38.55048,-19.82698a-13.91461,11.20143 0 0 0 3.21276,-1.83219c6.15767,-2.0478 12.44862,-0.75412 18.73956,-0.3229a-141.82834,114.1736 0 0 1 22.62127,-0.10416a-187.63372,151.04751 0 0 1 45.3771,-7.00376c5.35416,-1.40096 12.31535,-3.55604 16.59816,-6.57358a-15.00925,12.08263 0 0 1 4.55065,-6.78815a-75.71001,60.94751 0 0 1 -2.54381,-6.78815c-3.75231,5.92674 -15.26026,10.77542 -23.02367,13.03883c-8.56692,2.58631 -18.07062,2.90921 -27.17191,3.12482c-18.59335,0.32081 -36.66397,2.153 -55.00242,0.75204z"/>
      <path stroke="null" id="svg_134" fill="#4fc4f7" d="m337.10584,285.39613c-4.01109,-1.07806 -8.43364,-0.21561 -12.58189,-0.53851c-20.07875,-1.83219 -30.38596,-20.2582 -52.20372,-18.85308c8.29908,4.957 13.25213,12.49928 18.73956,19.39575s12.18078,14.00856 21.95232,16.70216a-34.13957,27.48278 0 0 1 8.96803,1.29263a-55.75547,44.88386 0 0 1 16.33032,-0.96974c6.29095,-0.9739 5.08632,-15.19808 -1.20462,-17.02922z"/>
      <path stroke="null" id="svg_135" fill="#4fc4f7" d="m535.21239,410.39306c6.55878,25.21521 -14.18892,50.10127 -6.29095,74.78734c-0.53567,-1.83219 -3.48059,-3.98727 -4.55065,-5.81841a-72.16602,58.09455 0 0 0 -2.94492,-7.3277c-2.00813,-4.74139 -4.01109,-9.2703 -4.68521,-14.43979c-0.93678,-6.78815 0.53567,-13.57734 1.7403,-20.2582c1.20462,-6.3538 3.8817,-11.63787 -0.93678,-17.349c-4.95305,-5.81841 -12.84973,-9.47862 -18.20389,-14.9783c-7.49557,-7.6506 -13.3854,-17.88751 -16.866,-27.15468c-2.00813,-5.17262 -4.28281,-10.34419 -5.35416,-15.72826c-0.66895,-3.02066 -2.67708,-6.57358 -2.27597,-9.6984c0.12939,-0.75412 13.25213,-0.96974 14.45675,-0.96974c5.35416,0 8.70019,1.07806 13.3854,2.47798c-0.66895,6.89648 2.67708,13.68462 7.09446,19.50408c4.81849,6.46525 10.57505,12.82322 15.92921,19.07285a-65.73016,52.9136 0 0 0 9.50241,17.88021z"/>
      <path stroke="null" id="svg_136" fill="#4fc4f7" d="m455.2998,394.22941a-32.40057,26.08287 0 0 0 6.95989,2.47798a-31.2904,25.18917 0 0 0 6.96119,4.52578c8.43235,7.21937 8.70019,16.59487 10.44048,26.07662c2.67708,15.08559 1.7403,30.17117 6.15767,45.14947c-8.16581,-4.74139 -12.98429,-12.71489 -14.32219,-20.5811c-0.80351,-5.2799 -0.26784,-10.77542 -1.33789,-16.05532c-1.7403,-8.62033 -8.16581,-17.56461 -18.60629,-20.47381c-12.84973,-3.55604 -26.63753,-3.44772 -39.7551,-6.57358a-63.03755,50.74602 0 0 0 -24.22829,-11.31393c-3.34603,-2.47798 -6.55878,-3.77166 -10.44048,-5.71113c-1.87357,-0.96974 -8.03124,-6.57358 -9.5037,-6.57358c8.43235,0.21561 14.85786,-7.9735 23.02367,-6.78815a-18.72404,15.07309 0 0 0 6.42551,2.3707a-172.15737,138.58885 0 0 1 15.26026,7.00376c13.51738,5.06533 29.31203,3.01753 42.96527,6.46629z"/>
      <path stroke="null" id="svg_137" fill="#4fc4f7" d="m-603.50173,425.90883c1.20462,-6.14548 663.12411,-145.25513 652.8156,-159.26161a-270.0526,217.39575 0 0 1 86.87249,72.84266c11.64511,6.03403 24.49613,11.52954 38.41721,11.85348c25.29835,0.64684 48.32202,-19.07285 46.04604,-39.33106c10.84289,14.11585 34.80593,15.72826 53.5429,22.41329c12.31535,4.41849 23.02367,11.42226 35.47229,15.6241c19.27912,6.57358 41.09429,5.81841 62.10723,5.06429c14.45675,-0.53851 29.18005,-1.07702 43.50353,-3.44772c13.65324,-2.3707 25.56618,-9.05156 38.81702,-11.42226c13.51867,-2.3707 39.48726,-0.86245 46.45103,10.66813c-19.67635,0.86245 -36.27451,-0.96974 -54.74753,7.11209c-5.08632,2.15508 -9.9061,4.84868 -14.99243,7.11209c-7.22773,3.12482 -15.39742,4.31017 -22.48799,7.3277a-153.01023,123.17516 0 0 0 -21.28337,7.86621a-192.22706,154.74521 0 0 0 -53.5429,8.08182a-124.17824,99.96505 0 0 0 -21.14881,-0.53851c-9.9061,-0.96974 -19.81091,-3.34043 -29.85029,-2.58631c-9.90481,0.75412 -10.84289,8.62033 -17.80278,13.79295c-14.59002,10.77542 -33.73199,14.9783 -53.5429,14.76269c47.11739,10.55981 97.17971,-6.78815 146.30523,-5.49552c25.43291,0.64684 66.5259,6.03403 79.10909,27.04635c-24.6294,-10.45252 -54.34383,-12.71489 -77.37526,-9.37446c-30.51924,4.31017 -75.76306,9.6984 -106.68341,9.80568a-150.36808,121.0482 0 0 0 -79.64476,-17.67189c-22.62127,-11.09936 -44.97599,-23.06012 -64.11666,-37.82281c-17.40167,-13.36173 -34.5355,-22.84451 -58.62923,-26.93907a-454.76598,366.09235 0 0 1 -103.47065,-7.54331c-15.6562,0.3229 -70.27433,13.25444 -83.3919,14.33146c-16.73143,1.29263 -125.82537,20.04259 -164.77696,24.99855c-3.48059,0.43123 -7.63401,0.75412 -10.17265,-1.29263c-2.53605,-2.26237 -292.33487,44.71929 -291.79919,42.02361z"/>
      <path stroke="#086687" id="svg_138" stroke-width="3" stroke-miterlimit="10" fill="none" d="m-595.20136,200.26981s710.91045,30.49511 754.27941,30.49511s140.68323,-30.49511 162.23315,-30.49511s221.79916,-41.37781 248.8391,-45.68798s181.24055,-2.15508 183.91763,2.15508c5.35416,8.72866 -2.67708,13.03883 -13.51997,19.61136s-32.25953,8.72866 -48.72312,8.72866l-45.91277,0s-29.71572,19.82698 -48.72312,23.92153c-29.71572,6.57358 -73.08469,0 -73.08469,0s-51.40021,52.26156 -105.47878,56.57173"/>
      <path stroke="#086687" id="svg_139" stroke-width="3" stroke-miterlimit="10" fill="none" d="m267.23262,262.55162s10.84289,6.57358 21.68448,19.61136s21.68448,21.76957 29.71572,21.76957s48.72312,-4.31017 64.92017,-2.15508s59.56601,8.72866 73.08598,8.72866s64.92017,-13.03883 64.92017,-13.03883s59.56601,-8.72866 64.92017,8.72866s-6.69335,32.11168 -24.36156,39.22273c-32.3928,13.03883 -62.23662,4.31017 -89.27915,6.57358c-22.22016,1.83219 -94.6359,37.06765 -138.00615,37.06765c-43.23569,0 -94.6359,-8.72866 -94.6359,-8.72866"/>
      <path stroke="#086687" id="svg_140" stroke-width="3" stroke-miterlimit="10" fill="none" d="m553.95196,356.19203s7.89279,46.55043 8.83475,62.06724s7.36229,77.26115 -0.66895,79.41624s-35.20445,-6.57358 -40.55861,-21.76957s-2.67708,-37.06765 0,-45.68798s-14.32219,-16.16365 -21.68448,-23.92153c-8.16581,-8.72866 -27.04252,-37.06765 -24.36156,-54.41664"/>
      <path stroke="#086687" id="svg_141" stroke-width="3" stroke-miterlimit="10" fill="none" d="m375.38849,388.84222s29.71572,21.76957 48.72312,21.76957s40.55861,10.99103 43.23569,15.3012s4.28281,28.98582 13.51997,43.5329s18.87413,30.49511 35.20445,28.34003"/>
      <path stroke="#086687" id="svg_142" stroke-width="3" stroke-miterlimit="10" fill="none" d="m451.15025,441.10378s-35.20445,-19.61136 -78.44014,-17.45628s-90.08525,12.49928 -108.15587,13.03883c-64.92017,2.15508 -146.0374,-43.85163 -162.23315,-60.99022c-35.20445,-37.06765 -181.24055,-32.65019 -216.31173,-21.76957s-478.40167,69.71784 -478.40167,69.71784"/>
      <path stroke="#086687" id="svg_143" stroke-width="3" stroke-miterlimit="10" fill="none" d="m424.11161,275.59045s32.92848,-5.06429 53.81074,-6.68086c48.58985,-3.87998 48.58985,18.21249 48.58985,18.21249"/>
     </g>
    </g>
   </g>
  </g>
 </g>
</svg>